<?xml version="1.0" standalone="no"?>
<!DOCTYPE svg PUBLIC "-//W3C//DTD SVG 20010904//EN"
 "http://www.w3.org/TR/2001/REC-SVG-20010904/DTD/svg10.dtd">
<svg version="1.0" xmlns="http://www.w3.org/2000/svg"
 width="420.000000pt" height="136.000000pt" viewBox="0 0 420.000000 136.000000"
 preserveAspectRatio="xMidYMid meet">

<g transform="translate(0.000000,136.000000) scale(0.100000,-0.100000)"
fill="#000000" stroke="none">
<path d="M2360 915 c0 -42 -2 -45 -19 -35 -60 31 -121 -11 -121 -83 0 -77 63
-127 116 -92 13 8 24 11 24 5 0 -5 14 -10 30 -10 l30 0 0 130 0 130 -30 0
c-29 0 -30 -2 -30 -45z m-19 -75 c22 -12 27 -68 7 -88 -28 -28 -78 -1 -78 43
0 24 23 55 41 55 6 0 19 -5 30 -10z"/>
<path d="M190 826 l0 -126 25 0 c22 0 25 4 25 35 0 33 2 35 35 35 97 0 147 82
91 147 -21 25 -31 28 -100 31 l-76 4 0 -126z m124 68 c20 -8 21 -48 2 -63 -8
-7 -27 -11 -43 -9 -24 3 -28 8 -31 41 -3 35 -2 37 27 37 16 0 36 -3 45 -6z"/>
<path d="M469 927 c-125 -84 -37 -267 111 -227 55 15 90 60 90 117 0 25 -8 58
-17 74 -35 59 -124 76 -184 36z m124 -45 c9 -10 20 -32 23 -50 5 -26 1 -36
-24 -62 -37 -36 -62 -38 -98 -6 -22 18 -28 32 -27 60 1 21 9 46 19 57 23 25
85 26 107 1z"/>
<path d="M682 938 c3 -7 22 -64 43 -126 35 -107 38 -113 62 -110 22 3 30 13
51 75 14 40 28 70 32 68 4 -2 17 -36 31 -75 21 -62 26 -70 49 -70 24 0 28 9
67 125 l41 125 -27 0 c-26 0 -30 -5 -52 -80 -13 -44 -26 -80 -29 -80 -3 0 -17
35 -31 78 -22 67 -28 77 -50 80 -24 3 -27 -2 -50 -77 -13 -45 -27 -81 -30 -81
-3 0 -16 36 -29 80 -22 77 -24 80 -52 80 -20 0 -29 -4 -26 -12z"/>
<path d="M1080 825 l0 -125 95 0 c88 0 95 1 95 20 0 18 -7 20 -65 20 l-65 0 0
30 0 30 61 0 c57 0 60 1 57 23 -3 19 -10 22 -60 25 -54 3 -58 5 -58 27 0 24 3
25 65 25 63 0 65 1 65 25 0 25 0 25 -95 25 l-95 0 0 -125z"/>
<path d="M1311 825 l-2 -125 90 0 c90 0 91 0 91 25 0 24 -3 25 -60 25 l-60 0
0 100 0 100 -28 0 -29 0 -2 -125z"/>
<path d="M1520 825 l0 -125 90 0 c89 0 90 0 90 25 0 24 -2 25 -65 25 l-65 0 0
100 0 100 -25 0 -25 0 0 -125z"/>
<path d="M2550 825 l0 -125 25 0 c22 0 25 4 25 35 0 34 1 35 38 35 79 0 130
64 100 127 -18 38 -53 53 -125 53 l-63 0 0 -125z m124 69 c19 -7 21 -45 4 -62
-7 -7 -27 -12 -45 -12 -32 0 -33 1 -33 40 0 38 2 40 29 40 16 0 36 -3 45 -6z"/>
<path d="M2780 825 l0 -125 25 0 25 0 0 125 0 125 -25 0 -25 0 0 -125z"/>
<path d="M2907 939 c-28 -16 -40 -58 -26 -91 9 -22 23 -31 65 -44 62 -18 73
-29 50 -52 -15 -15 -20 -15 -61 -1 -31 11 -47 13 -54 6 -25 -25 -7 -41 67 -62
30 -9 90 12 102 35 28 53 -1 99 -76 120 -31 9 -44 18 -44 30 0 26 26 32 65 15
33 -13 36 -13 46 6 6 12 9 22 7 24 -30 25 -108 33 -141 14z"/>
<path d="M3100 825 l0 -125 25 0 c24 0 25 2 26 78 l0 77 22 -29 c58 -76 49
-75 88 -15 l34 54 3 -83 c3 -80 4 -82 27 -82 l25 0 0 125 0 125 -29 0 c-24 0
-35 -8 -60 -50 -17 -28 -36 -48 -41 -45 -5 3 -21 26 -36 51 -21 36 -31 44 -55
44 l-29 0 0 -125z"/>
<path d="M3431 831 c-28 -66 -51 -122 -51 -125 0 -3 11 -6 25 -6 18 0 28 7 35
25 9 23 15 25 65 25 49 0 57 -3 67 -25 8 -18 19 -25 39 -25 l27 0 -33 78 c-75
176 -73 172 -98 172 -22 0 -31 -14 -76 -119z m106 -28 c-3 -2 -19 -3 -35 -1
l-30 3 16 39 15 39 19 -38 c11 -20 17 -39 15 -42z"/>
<path d="M3660 825 l0 -125 30 0 29 0 3 76 3 76 55 -76 c45 -62 60 -75 83 -76
l27 0 0 125 0 125 -30 0 -30 0 0 -76 0 -77 -57 76 c-47 62 -63 76 -85 77 l-28
0 0 -125z"/>
<path d="M1838 883 c-36 -9 -11 -48 26 -41 18 4 35 -1 49 -13 22 -18 22 -18
-23 -19 -71 0 -110 -42 -82 -87 12 -20 60 -33 85 -24 12 5 37 6 56 3 l33 -5
-4 78 c-3 66 -7 80 -27 96 -22 18 -71 23 -113 12z m87 -113 c9 -14 -13 -40
-34 -40 -23 0 -41 19 -34 36 6 16 59 19 68 4z"/>
<path d="M2010 795 l0 -95 30 0 30 0 0 65 c0 52 4 66 18 74 32 17 46 -3 50
-73 4 -62 6 -66 28 -66 23 0 24 3 24 73 0 88 -16 117 -64 117 -17 0 -37 -5
-44 -12 -9 -9 -12 -9 -12 0 0 7 -13 12 -30 12 l-30 0 0 -95z"/>
<path d="M3936 741 c-11 -18 6 -42 28 -39 29 4 29 42 -1 46 -11 2 -24 -1 -27
-7z"/>
</g>
</svg>
